<svg xmlns="http://www.w3.org/2000/svg" width="199.9" height="69.4" viewBox="0 0 199.9 69.4">
  <g id="Gruppe_60" data-name="Gruppe 60" transform="translate(-2295.1 146)">
    <g id="Gruppe_58" data-name="Gruppe 58" transform="translate(2295.2 -146)">
      <path id="Pfad_329" data-name="Pfad 329" d="M0,68.6v-1l.8-.2a2.549,2.549,0,0,0,1.8-2.7V36.8c0-.8,0-1.3-.4-1.7a1.99,1.99,0,0,0-1.5-.8l-.8-.2v-1l9.5-2.3.7.5-.2,7.6V64.8a3.453,3.453,0,0,0,.5,1.8,1.77,1.77,0,0,0,1.4.9l.8.2v1H0Z" fill="#ffffff"/>
      <path id="Pfad_330" data-name="Pfad 330" d="M22.3,69.3a7.652,7.652,0,0,1-5.2-1.8A6.351,6.351,0,0,1,15,62.4c0-2.2.8-3.3,2.5-4.8s4.3-2.5,7.9-3.2c.6,0,1.3-.3,2.1-.4a20.023,20.023,0,0,0,2.4-.4V49.8c0-2.5-.3-4.1-.9-5.1a3.3,3.3,0,0,0-2.9-1.4h-.2a2.792,2.792,0,0,0-2,.8,4.189,4.189,0,0,0-.9,2.6l-.2.7a5.517,5.517,0,0,1-1.1,3.2,3.1,3.1,0,0,1-2.4,1,3.3,3.3,0,0,1-2.2-.8,2.94,2.94,0,0,1-.9-2.2,4.975,4.975,0,0,1,1.5-3.7,9.807,9.807,0,0,1,4-2.3,19.053,19.053,0,0,1,5.4-.8c3.2,0,5.7.8,7.3,2.3,1.7,1.5,2.5,4.1,2.5,7.6v12c0,1.5.7,2.3,2.2,2.3h1.2l.5.6a6.574,6.574,0,0,1-2.2,1.9,7.221,7.221,0,0,1-3.2.7,6.467,6.467,0,0,1-3.7-1.1,5.163,5.163,0,0,1-1.8-2.9,29.267,29.267,0,0,1-3.4,3,7.382,7.382,0,0,1-4.4,1.1h.2Zm3.2-3.4a5.374,5.374,0,0,0,2.1-.5A12.414,12.414,0,0,0,30,63.8V55.2a16.045,16.045,0,0,0-2.9.5,8.184,8.184,0,0,0-3.8,2,5.21,5.21,0,0,0-1.4,3.9,4.1,4.1,0,0,0,1,3.2,3.467,3.467,0,0,0,2.6,1.1Z" fill="#ffffff"/>
      <path id="Pfad_331" data-name="Pfad 331" d="M56.6,69.3A12.912,12.912,0,0,1,50,67.7a12.211,12.211,0,0,1-4.7-4.6,14.224,14.224,0,0,1-1.7-7.4,13.945,13.945,0,0,1,1.9-7.5,12.171,12.171,0,0,1,5.1-4.7,14.891,14.891,0,0,1,6.9-1.6,10.427,10.427,0,0,1,5.2,1A9.782,9.782,0,0,1,66,45.5a5.518,5.518,0,0,1,1.1,3.4,2.613,2.613,0,0,1-.9,2.3,3.531,3.531,0,0,1-4.8-.3,4.194,4.194,0,0,1-1.1-2.8V44.8a1.469,1.469,0,0,0-.7-1.2,2.649,2.649,0,0,0-1.4-.3A5.831,5.831,0,0,0,53,46c-1.2,1.8-1.8,4.8-1.8,8.8s.7,6.2,2,8.1,3.4,2.8,6.2,2.8,3-.3,4.1-.9a9.454,9.454,0,0,0,3-2.7l.9.6a10,10,0,0,1-4.1,4.9,12.958,12.958,0,0,1-6.6,1.7h-.1Z" fill="#ffffff"/>
      <path id="Pfad_332" data-name="Pfad 332" d="M77.4,69.3a7.652,7.652,0,0,1-5.2-1.8,6.351,6.351,0,0,1-2.1-5.1c0-2.2.8-3.3,2.5-4.8s4.3-2.5,7.9-3.2c.6,0,1.3-.3,2.1-.4a20.023,20.023,0,0,0,2.4-.4V49.8c0-2.5-.3-4.1-.9-5.1a3.3,3.3,0,0,0-2.9-1.4H81a2.792,2.792,0,0,0-2,.8,4.189,4.189,0,0,0-.9,2.6l-.2.7a4.9,4.9,0,0,1-1.1,3.2,3.1,3.1,0,0,1-2.4,1,3.3,3.3,0,0,1-2.2-.8,2.94,2.94,0,0,1-.9-2.2,4.975,4.975,0,0,1,1.5-3.7,9.807,9.807,0,0,1,4-2.3,19.053,19.053,0,0,1,5.4-.8c3.2,0,5.7.8,7.3,2.3,1.7,1.5,2.5,4.1,2.5,7.6v12c0,1.5.7,2.3,2.2,2.3h1.2l.5.6a6.574,6.574,0,0,1-2.2,1.9,7.221,7.221,0,0,1-3.2.7,6.467,6.467,0,0,1-3.7-1.1A5.163,5.163,0,0,1,85,65.2a29.268,29.268,0,0,1-3.4,3,7.382,7.382,0,0,1-4.4,1.1h.2Zm3.2-3.4a5.374,5.374,0,0,0,2.1-.5,12.415,12.415,0,0,0,2.4-1.6V55.2a16.044,16.044,0,0,0-2.9.5,8.184,8.184,0,0,0-3.8,2A5.21,5.21,0,0,0,77,61.6a4.1,4.1,0,0,0,1,3.2,3.467,3.467,0,0,0,2.6,1.1Z" fill="#ffffff"/>
      <path id="Pfad_333" data-name="Pfad 333" d="M106.7,69.3a17.268,17.268,0,0,1-4.7-.6,19.657,19.657,0,0,1-4-1.6V60.7h1.5l1.6,3.1a9.324,9.324,0,0,0,2.4,3,5.952,5.952,0,0,0,3.4,1,8.107,8.107,0,0,0,4.1-1.1,3.442,3.442,0,0,0,1.5-3,3.609,3.609,0,0,0-1.1-2.8,11.058,11.058,0,0,0-4.1-2l-2.4-.8a11.594,11.594,0,0,1-5.1-2.9,7.141,7.141,0,0,1-1.9-4.9,6.757,6.757,0,0,1,1.2-4.2,8.5,8.5,0,0,1,3.6-3.1,12.79,12.79,0,0,1,5.8-1.1,13.251,13.251,0,0,1,4.1.5,15.805,15.805,0,0,1,3.6,1.4l-.3,5.8h-1.4l-1.7-3.1a6.185,6.185,0,0,0-1.8-2.4,4.846,4.846,0,0,0-2.7-.7,5.887,5.887,0,0,0-3.4,1,3.219,3.219,0,0,0-1.5,2.8,3.287,3.287,0,0,0,1.2,2.7,12.275,12.275,0,0,0,4,2l2.3.7a11.119,11.119,0,0,1,5.6,3.3,7.677,7.677,0,0,1,1.7,4.9,8.3,8.3,0,0,1-3.1,6.2c-2,1.6-4.9,2.4-8.6,2.4h.2Z" fill="#ffffff"/>
      <path id="Pfad_334" data-name="Pfad 334" d="M128.4,69.3a7.652,7.652,0,0,1-5.2-1.8,6.351,6.351,0,0,1-2.1-5.1c0-2.2.8-3.3,2.5-4.8s4.3-2.5,7.9-3.2c.6,0,1.3-.3,2.1-.4a20.022,20.022,0,0,0,2.4-.4V49.8c0-2.5-.3-4.1-.9-5.1a3.3,3.3,0,0,0-2.9-1.4H132a2.792,2.792,0,0,0-2,.8,4.189,4.189,0,0,0-.9,2.6l-.2.7a5.517,5.517,0,0,1-1.1,3.2,3.1,3.1,0,0,1-2.4,1,3.3,3.3,0,0,1-2.2-.8,2.94,2.94,0,0,1-.9-2.2,4.975,4.975,0,0,1,1.5-3.7,9.807,9.807,0,0,1,4-2.3,19.053,19.053,0,0,1,5.4-.8c3.2,0,5.7.8,7.3,2.3,1.7,1.5,2.5,4.1,2.5,7.6v12c0,1.5.7,2.3,2.2,2.3h1.2l.5.6a6.574,6.574,0,0,1-2.2,1.9,7.221,7.221,0,0,1-3.2.7,6.467,6.467,0,0,1-3.7-1.1,5.163,5.163,0,0,1-1.8-2.9,29.271,29.271,0,0,1-3.4,3,7.382,7.382,0,0,1-4.4,1.1h.2Zm3.2-3.4a5.374,5.374,0,0,0,2.1-.5,12.414,12.414,0,0,0,2.4-1.6V55.2a16.044,16.044,0,0,0-2.9.5,8.184,8.184,0,0,0-3.8,2,5.21,5.21,0,0,0-1.4,3.9,4.1,4.1,0,0,0,1,3.2,3.467,3.467,0,0,0,2.6,1.1h0Z" fill="#ffffff"/>
      <path id="Pfad_335" data-name="Pfad 335" d="M150.9,43.2l.4-7.6a16.085,16.085,0,0,1,4.1-1.5,22.306,22.306,0,0,1,5.4-.6c4.2,0,7.2.9,9.1,2.6a8.7,8.7,0,0,1,2.8,6.6c0,2.6-1.1,4.9-3.4,7.2a76.5,76.5,0,0,1-9.6,8.1q-1.2.9-2.7,2.1c-1,.8-2,1.6-3,2.5h19.7v5.9H150.1V64.1c2.7-2.6,5.1-5.1,7.4-7.4a39.576,39.576,0,0,0,5.8-7.2,13.308,13.308,0,0,0,1.9-6.7,10.438,10.438,0,0,0-1.4-5.7,4.447,4.447,0,0,0-3.9-2.2,5.013,5.013,0,0,0-3.1.8,5.877,5.877,0,0,0-2.2,2.8l-2.1,4.6h-1.6Z" fill="#ffffff"/>
      <path id="Pfad_336" data-name="Pfad 336" d="M188.1,68.6V59.8H173.8V56.5l15.8-22.6h5V55.7h5.2v4.2h-5.2v8.8h-6.5Zm-11.4-13h11.4V39.3Z" fill="#ffffff"/>
    </g>
    <g id="Gruppe_59" data-name="Gruppe 59" transform="translate(2295.2 -146)">
      <path id="Pfad_337" data-name="Pfad 337" d="M79.3,13.2,100.1,32a.908.908,0,0,0,.7.3h34a1.153,1.153,0,0,0,.6-2.1l-21-16.7a1.421,1.421,0,0,0-.6-.2H79.3Z" fill="#fe7073"/>
      <path id="Pfad_338" data-name="Pfad 338" d="M113.9,1.5A1.538,1.538,0,0,0,112.4,0h-53a1.59,1.59,0,0,0-1.5,1.7V30.9a1.539,1.539,0,0,0,2.6,1.2L79.4,13.4h34.8l-.3-11.9h0Z" fill="#ffffff"/>
    </g>
  </g>
</svg>
